<svg id="svg" version="1.1" xmlns="http://www.w3.org/2000/svg" xmlns:xlink="http://www.w3.org/1999/xlink" width="400" height="400" viewBox="0, 0, 400,400"><g id="svgg"><path id="path0" d="M385.215 0.638 C 384.885 0.757,383.922 1.147,383.075 1.505 C 381.461 2.188,172.770 198.057,172.906 198.761 C 172.945 198.958,181.934 202.964,192.882 207.662 L 212.787 216.204 214.175 214.695 C 214.939 213.866,256.388 169.781,306.283 116.730 C 356.179 63.679,397.496 19.554,398.098 18.674 C 401.957 13.036,399.825 4.675,393.743 1.597 C 391.846 0.636,386.800 0.069,385.215 0.638 " stroke="none" fill="#e41c3c" fill-rule="evenodd"></path><path id="path1" d="M136.470 212.976 L 126.487 222.969 123.980 220.484 L 121.473 217.999 116.283 223.177 L 111.094 228.355 113.583 230.866 L 116.071 233.377 105.988 243.461 L 95.904 253.544 121.377 279.019 L 146.849 304.494 156.937 294.412 L 167.024 284.330 169.534 286.818 L 172.044 289.306 177.222 284.116 L 182.400 278.927 179.916 276.420 L 177.432 273.914 197.407 253.941 C 208.394 242.957,217.379 233.789,217.374 233.568 C 217.368 233.246,148.534 203.473,146.909 203.089 C 146.658 203.030,141.961 207.479,136.470 212.976 M50.446 299.004 L 15.180 334.272 20.283 339.364 C 23.089 342.164,25.563 344.456,25.781 344.456 C 26.303 344.456,96.304 274.442,96.304 273.919 C 96.304 273.398,86.630 263.736,86.107 263.736 C 85.890 263.736,69.843 279.607,50.446 299.004 M70.730 319.080 L 35.367 354.445 40.662 359.739 L 45.956 365.033 81.416 329.572 L 116.877 294.111 111.691 288.914 C 108.839 286.055,106.412 283.716,106.299 283.716 C 106.185 283.716,90.179 299.630,70.730 319.080 M90.806 339.364 L 55.540 374.632 60.840 379.921 L 66.140 385.210 101.402 349.947 C 120.796 330.552,136.663 314.501,136.663 314.279 C 136.663 313.757,126.989 304.096,126.467 304.096 C 126.250 304.096,110.202 319.966,90.806 339.364 M5.394 354.446 L 0.206 359.646 20.482 379.922 L 40.758 400.197 45.953 395.002 L 51.148 389.807 30.865 369.527 L 10.582 349.246 5.394 354.446 " stroke="none" fill="#040404" fill-rule="evenodd"></path><path id="path2" d="" stroke="none" fill="#e81420" fill-rule="evenodd"></path><path id="path3" d="" stroke="none" fill="#401420" fill-rule="evenodd"></path><path id="path4" d="" stroke="none" fill="#041424" fill-rule="evenodd"></path></g></svg>